<svg width="44" height="44" viewBox="0 0 44 44" fill="none" xmlns="http://www.w3.org/2000/svg">
<g id="ant-design:calculator-outlined">
<path id="Vector" d="M10.7937 16.6289H13.75V19.5852C13.75 19.6625 13.8273 19.7227 13.9219 19.7227H15.9844C16.0789 19.7227 16.1562 19.6625 16.1562 19.5809V16.6289H19.1125C19.1898 16.6289 19.25 16.5516 19.25 16.457V14.3945C19.25 14.3 19.1898 14.2227 19.1082 14.2227H16.1562V11.2664C16.1562 11.1891 16.0789 11.1289 15.9844 11.1289H13.9219C13.8273 11.1289 13.75 11.1891 13.75 11.2664V14.2227H10.7937C10.7164 14.2227 10.6562 14.3 10.6562 14.3945V16.457C10.6562 16.5516 10.7164 16.6289 10.7937 16.6289ZM24.8875 16.6289H33.2062C33.2836 16.6289 33.3438 16.5516 33.3438 16.457V14.3945C33.3438 14.3 33.2836 14.2227 33.202 14.2227H24.8875C24.8102 14.2227 24.75 14.3 24.75 14.3945V16.457C24.75 16.5516 24.8102 16.6289 24.8875 16.6289ZM24.8875 28.0156H33.2062C33.2836 28.0156 33.3438 27.9383 33.3438 27.8438V25.7812C33.3438 25.6867 33.2836 25.6094 33.202 25.6094H24.8875C24.8102 25.6094 24.75 25.6867 24.75 25.7812V27.8438C24.75 27.9383 24.8102 28.0156 24.8875 28.0156ZM24.8875 32.4844H33.2062C33.2836 32.4844 33.3438 32.407 33.3438 32.3125V30.25C33.3438 30.1555 33.2836 30.0781 33.202 30.0781H24.8875C24.8102 30.0781 24.75 30.1555 24.75 30.25V32.3125C24.75 32.407 24.8102 32.4844 24.8875 32.4844ZM16.4785 29.0039L19.1082 25.7855C19.293 25.5621 19.1383 25.2227 18.8547 25.2227H16.6719C16.573 25.2227 16.4785 25.2656 16.4184 25.3473L14.9574 27.1348L13.4965 25.3473C13.4657 25.3094 13.4272 25.2787 13.3834 25.2571C13.3396 25.2356 13.2917 25.2239 13.243 25.2227H11.0559C10.7723 25.2227 10.6176 25.5621 10.8023 25.7855L13.432 29.0039L10.7379 32.3039C10.5488 32.5273 10.7035 32.8668 10.9871 32.8668H13.1699C13.2688 32.8668 13.3633 32.8238 13.4234 32.7422L14.9488 30.873L16.4742 32.7422C16.5387 32.8195 16.6332 32.8668 16.7277 32.8668H18.9105C19.1941 32.8668 19.3488 32.5273 19.1641 32.3039L16.4785 29.0039ZM37.8125 4.8125H6.1875C5.42695 4.8125 4.8125 5.42695 4.8125 6.1875V37.8125C4.8125 38.573 5.42695 39.1875 6.1875 39.1875H37.8125C38.573 39.1875 39.1875 38.573 39.1875 37.8125V6.1875C39.1875 5.42695 38.573 4.8125 37.8125 4.8125ZM36.2656 36.2656H7.73438V7.73438H36.2656V36.2656Z" fill="white"/>
</g>
</svg>
