<svg width="44" height="44" viewBox="0 0 44 44" fill="none" xmlns="http://www.w3.org/2000/svg">
<g id="ion:document-sharp">
<path id="Vector" d="M20.625 18.5625V2.75H7.90625C7.63275 2.75 7.37044 2.85865 7.17705 3.05205C6.98365 3.24544 6.875 3.50775 6.875 3.78125V40.2188C6.875 40.4923 6.98365 40.7546 7.17705 40.948C7.37044 41.1414 7.63275 41.25 7.90625 41.25H36.0938C36.3673 41.25 36.6296 41.1414 36.823 40.948C37.0164 40.7546 37.125 40.4923 37.125 40.2188V19.25H21.3125C21.1302 19.25 20.9553 19.1776 20.8264 19.0486C20.6974 18.9197 20.625 18.7448 20.625 18.5625Z" fill="white"/>
<path id="Vector_2" d="M23.375 3.58314V16.1567C23.375 16.2478 23.4112 16.3353 23.4757 16.3997C23.5401 16.4642 23.6276 16.5004 23.7188 16.5004H36.2923C36.3262 16.5004 36.3594 16.4904 36.3877 16.4716C36.416 16.4527 36.438 16.426 36.4511 16.3946C36.4641 16.3633 36.4676 16.3287 36.4611 16.2954C36.4545 16.2621 36.4382 16.2314 36.4143 16.2074L23.668 3.46111C23.644 3.43717 23.6133 3.4209 23.58 3.41435C23.5467 3.40781 23.5122 3.41128 23.4808 3.42434C23.4494 3.4374 23.4227 3.45945 23.4038 3.48771C23.385 3.51597 23.375 3.54918 23.375 3.58314Z" fill="white"/>
</g>
</svg>
