<svg width="44" height="44" viewBox="0 0 44 44" fill="none" xmlns="http://www.w3.org/2000/svg">
<g id="Frame 202">
<path id="Vector" d="M22 4C12.0748 4 4 12.0748 4 22V29.4574C4 31.3006 5.6146 32.8 7.6 32.8H9.4C9.87739 32.8 10.3352 32.6104 10.6728 32.2728C11.0104 31.9352 11.2 31.4774 11.2 31V21.7426C11.2 21.2652 11.0104 20.8074 10.6728 20.4698C10.3352 20.1322 9.87739 19.9426 9.4 19.9426H7.7656C8.7664 12.9766 14.7604 7.6 22 7.6C29.2396 7.6 35.2336 12.9766 36.2344 19.9426H34.6C34.1226 19.9426 33.6648 20.1322 33.3272 20.4698C32.9896 20.8074 32.8 21.2652 32.8 21.7426V32.8C32.8 34.7854 31.1854 36.4 29.2 36.4H25.6V34.6H18.4V40H29.2C33.1708 40 36.4 36.7708 36.4 32.8C38.3854 32.8 40 31.3006 40 29.4574V22C40 12.0748 31.9252 4 22 4Z" fill="white"/>
</g>
</svg>
