<svg width="44" height="44" viewBox="0 0 44 44" fill="none" xmlns="http://www.w3.org/2000/svg">
<g id="ion:document-sharp">
<path id="Vector" d="M37.3043 6H24.087C23.7043 6 23.3913 6.31304 23.3913 6.69565V19.913C23.3913 20.2957 23.7043 20.6087 24.087 20.6087H37.3043C37.687 20.6087 38 20.2957 38 19.913V6.69565C38 6.31304 37.687 6 37.3043 6ZM37.3043 23.3913H24.087C23.7043 23.3913 23.3913 23.7043 23.3913 24.087V37.3043C23.3913 37.687 23.7043 38 24.087 38H37.3043C37.687 38 38 37.687 38 37.3043V24.087C38 23.7043 37.687 23.3913 37.3043 23.3913ZM19.913 6H6.69565C6.31304 6 6 6.31304 6 6.69565V19.913C6 20.2957 6.31304 20.6087 6.69565 20.6087H19.913C20.2957 20.6087 20.6087 20.2957 20.6087 19.913V6.69565C20.6087 6.31304 20.2957 6 19.913 6ZM19.913 23.3913H6.69565C6.31304 23.3913 6 23.7043 6 24.087V37.3043C6 37.687 6.31304 38 6.69565 38H19.913C20.2957 38 20.6087 37.687 20.6087 37.3043V24.087C20.6087 23.7043 20.2957 23.3913 19.913 23.3913Z" fill="white"/>
</g>
</svg>
