<svg width="24" height="24" viewBox="0 0 24 24" fill="none" xmlns="http://www.w3.org/2000/svg">
<g id="Icon/Font Awesome Free/Solid/P/pencil-alt">
<path id="Vector" d="M21.4492 7.54807L19.6483 9.34893C19.4647 9.53253 19.1678 9.53253 18.9842 9.34893L14.6481 5.01282C14.4645 4.82921 14.4645 4.53233 14.6481 4.34873L16.449 2.54787C17.1795 1.81738 18.367 1.81738 19.1014 2.54787L21.4492 4.89562C22.1836 5.62612 22.1836 6.81367 21.4492 7.54807ZM13.1012 5.89566L2.84295 16.1539L2.01479 20.9002C1.90151 21.5408 2.46012 22.0955 3.10077 21.9861L7.84705 21.1541L18.1053 10.8959C18.2889 10.7123 18.2889 10.4154 18.1053 10.2318L13.7692 5.89566C13.5817 5.71206 13.2848 5.71206 13.1012 5.89566ZM6.84701 15.2749C6.63216 15.0601 6.63216 14.7163 6.84701 14.5015L12.8629 8.48561C13.0777 8.27076 13.4215 8.27076 13.6363 8.48561C13.8512 8.70046 13.8512 9.04423 13.6363 9.25908L7.62048 15.2749C7.40563 15.4898 7.06187 15.4898 6.84701 15.2749ZM5.4368 18.5602H7.31188V19.9783L4.79225 20.4197L3.57735 19.2048L4.01878 16.6852H5.4368V18.5602Z" fill="#4472C4"/>
</g>
</svg>
