<svg width="16" height="16" viewBox="0 0 16 16" fill="none" xmlns="http://www.w3.org/2000/svg">
<g id="Icon/Font Awesome Free/Solid/P/pencil-alt">
<path id="Vector" d="M14.2994 5.03209L13.0988 6.23266C12.9764 6.35506 12.7785 6.35506 12.6561 6.23266L9.76538 3.34192C9.64298 3.21952 9.64298 3.02159 9.76538 2.89919L10.966 1.69862C11.453 1.21162 12.2446 1.21162 12.7343 1.69862L14.2994 3.26379C14.789 3.75079 14.789 4.54249 14.2994 5.03209ZM8.73409 3.93048L1.89528 10.7693L1.34317 13.9335C1.26765 14.3606 1.64006 14.7304 2.06716 14.6575L5.23135 14.1028L12.0702 7.26395C12.1926 7.14155 12.1926 6.94362 12.0702 6.82122L9.17942 3.93048C9.05442 3.80808 8.85649 3.80808 8.73409 3.93048ZM4.56466 10.1833C4.42142 10.0401 4.42142 9.81092 4.56466 9.66769L8.57523 5.65711C8.71847 5.51388 8.94764 5.51388 9.09088 5.65711C9.23411 5.80035 9.23411 6.02952 9.09088 6.17276L5.0803 10.1833C4.93707 10.3266 4.70789 10.3266 4.56466 10.1833ZM3.62451 12.3735H4.87456V13.3189L3.19481 13.6132L2.38488 12.8032L2.67916 11.1235H3.62451V12.3735Z" fill="#4472C4"/>
</g>
</svg>
