<svg width="44" height="44" viewBox="0 0 44 44" fill="none" xmlns="http://www.w3.org/2000/svg">
<g id="ri:settings-5-fill">
<path id="Vector" d="M3.90875 24.9887C3.5799 23.0101 3.5799 20.9907 3.90875 19.0121C5.92908 19.0597 7.74408 18.0917 8.44991 16.3886C9.15575 14.6836 8.55625 12.7146 7.09325 11.3231C8.26 9.69008 9.68845 8.26102 11.3209 7.09355C12.7142 8.55655 14.6832 9.15605 16.3882 8.45022C18.0932 7.74439 19.0594 5.92755 19.0099 3.90905C20.9898 3.57979 23.0104 3.57979 24.9902 3.90905C24.9407 5.92939 25.9087 7.74439 27.6119 8.45022C29.3169 9.15605 31.2859 8.55655 32.6774 7.09355C34.3104 8.26031 35.7395 9.68875 36.9069 11.3212C35.4439 12.7146 34.8444 14.6836 35.5502 16.3886C36.2561 18.0936 38.0729 19.0597 40.0914 19.0102C40.4207 20.9901 40.4207 23.0107 40.0914 24.9906C38.0711 24.9411 36.2561 25.9091 35.5502 27.6122C34.8444 29.3172 35.4439 31.2862 36.9069 32.6777C35.7402 34.3107 34.3117 35.7398 32.6792 36.9072C31.2859 35.4442 29.3169 34.8447 27.6119 35.5506C25.9069 36.2564 24.9407 38.0732 24.9902 40.0917C23.0104 40.421 20.9898 40.421 19.0099 40.0917C19.0594 38.0714 18.0914 36.2564 16.3882 35.5506C14.6832 34.8447 12.7142 35.4442 11.3227 36.9072C9.68978 35.7405 8.26071 34.312 7.09325 32.6796C8.55625 31.2862 9.15575 29.3172 8.44991 27.6122C7.74408 25.9072 5.92725 24.9392 3.90875 24.9887ZM22.0001 27.5004C23.4588 27.5004 24.8577 26.9209 25.8892 25.8895C26.9206 24.858 27.5001 23.4591 27.5001 22.0004C27.5001 20.5417 26.9206 19.1427 25.8892 18.1113C24.8577 17.0798 23.4588 16.5004 22.0001 16.5004C20.5414 16.5004 19.1424 17.0798 18.111 18.1113C17.0795 19.1427 16.5001 20.5417 16.5001 22.0004C16.5001 23.4591 17.0795 24.858 18.111 25.8895C19.1424 26.9209 20.5414 27.5004 22.0001 27.5004Z" fill="white"/>
</g>
</svg>
