<svg xmlns="http://www.w3.org/2000/svg" width="65" height="25" viewBox="0 0 65 25" fill="none">
<path d="M8 4H13.446C13.6156 4 13.7824 4.04314 13.9308 4.12536C14.0791 4.20758 14.2041 4.32617 14.294 4.47L17.75 10H22.158C22.2448 9.99994 22.3302 10.0225 22.4056 10.0654C22.4811 10.1084 22.5441 10.1702 22.5884 10.2449C22.6327 10.3196 22.6568 10.4045 22.6583 10.4913C22.6598 10.5781 22.6387 10.6638 22.597 10.74L18.66 17.957C17.7794 18.075 16.8832 17.9559 16.064 17.6118C15.2448 17.2678 14.5323 16.7114 14 16C13.5347 16.6214 12.9309 17.1258 12.2365 17.473C11.5421 17.8202 10.7763 18.0006 10 18C9.22367 18.0006 8.45788 17.8202 7.76351 17.473C7.06913 17.1258 6.4653 16.6214 6 16C5.47889 16.6962 4.78494 17.2443 3.98687 17.5898C3.1888 17.9354 2.3143 18.0664 1.45 17.97L0.214 11.179C0.187777 11.0349 0.193542 10.8867 0.230886 10.7451C0.268229 10.6034 0.33624 10.4717 0.430108 10.3592C0.523977 10.2468 0.64141 10.1563 0.774102 10.0942C0.906794 10.0321 1.0515 9.99998 1.198 10H2V5C2 4.73478 2.10536 4.48043 2.29289 4.29289C2.48043 4.10536 2.73478 4 3 4H4V1H8V4ZM4 10H15.392L12.892 6H4V10ZM2 20C3.47626 20.002 4.90107 19.4578 6 18.472C7.09893 19.4578 8.52374 20.002 10 20C11.4763 20.002 12.9011 19.4578 14 18.472C15.0989 19.4578 16.5237 20.002 18 20H20V22H18C16.5956 22.0023 15.2157 21.6331 14 20.93C12.7843 21.6331 11.4044 22.0023 10 22C8.59564 22.0023 7.21565 21.6331 6 20.93C4.78435 21.6331 3.40436 22.0023 2 22H0V20H2Z" fill="white"/>
<path opacity="0.5" d="M51.6558 6.65982L43.3335 13.4812V20.8435C43.3335 21.0341 43.4096 21.2169 43.5451 21.3517C43.6805 21.4865 43.8642 21.5622 44.0557 21.5622L49.114 21.5492C49.3049 21.5482 49.4877 21.4721 49.6224 21.3374C49.757 21.2027 49.8326 21.0204 49.8326 20.8304V16.531C49.8326 16.3403 49.9087 16.1575 50.0442 16.0227C50.1796 15.8879 50.3633 15.8122 50.5548 15.8122H53.4437C53.6353 15.8122 53.819 15.8879 53.9544 16.0227C54.0899 16.1575 54.166 16.3403 54.166 16.531V20.8273C54.1657 20.9219 54.1841 21.0156 54.2203 21.103C54.2564 21.1905 54.3096 21.27 54.3767 21.337C54.4438 21.404 54.5235 21.4571 54.6113 21.4934C54.699 21.5296 54.7931 21.5483 54.8882 21.5483L59.9446 21.5622C60.1362 21.5622 60.3199 21.4865 60.4553 21.3517C60.5908 21.2169 60.6669 21.0341 60.6669 20.8435V13.4763L52.3464 6.65982C52.2486 6.58136 52.1267 6.53857 52.0011 6.53857C51.8755 6.53857 51.7536 6.58136 51.6558 6.65982ZM64.8016 11.2962L61.028 8.20064V1.97852C61.028 1.83555 60.9709 1.69843 60.8693 1.59734C60.7677 1.49625 60.63 1.43945 60.4863 1.43945H57.9585C57.8149 1.43945 57.6771 1.49625 57.5755 1.59734C57.4739 1.69843 57.4169 1.83555 57.4169 1.97852V5.24029L53.3756 1.93135C52.9877 1.61374 52.5011 1.44009 51.9988 1.44009C51.4966 1.44009 51.0099 1.61374 50.6221 1.93135L39.1961 11.2962C39.1412 11.3413 39.0959 11.3968 39.0625 11.4593C39.0292 11.5219 39.0086 11.5904 39.0019 11.6609C38.9952 11.7314 39.0025 11.8025 39.0235 11.8702C39.0444 11.9379 39.0785 12.0008 39.1239 12.0554L40.2749 13.448C40.3202 13.5027 40.3758 13.548 40.4387 13.5814C40.5015 13.6147 40.5704 13.6353 40.6413 13.6421C40.7122 13.6489 40.7838 13.6418 40.8519 13.621C40.92 13.6003 40.9833 13.5663 41.0382 13.5212L51.6558 4.81803C51.7536 4.73956 51.8755 4.69677 52.0011 4.69677C52.1267 4.69677 52.2486 4.73956 52.3464 4.81803L62.9644 13.5212C63.0193 13.5663 63.0825 13.6003 63.1505 13.6211C63.2185 13.6419 63.29 13.6492 63.3608 13.6426C63.4317 13.6359 63.5005 13.6154 63.5634 13.5822C63.6262 13.5491 63.6819 13.5039 63.7273 13.4493L64.8783 12.0567C64.9236 12.0019 64.9576 11.9386 64.9783 11.8706C64.999 11.8027 65.0059 11.7313 64.9988 11.6606C64.9917 11.5899 64.9706 11.5214 64.9367 11.4588C64.9029 11.3963 64.857 11.341 64.8016 11.2962Z" fill="white"/>
<rect opacity="0.5" x="34.097" width="2.11182" height="25.0514" rx="1.05591" transform="rotate(18.8575 34.097 0)" fill="white"/>
</svg>